<svg xmlns="http://www.w3.org/2000/svg" width="34" height="34" fill="#E1306C" viewBox="0 0 24 24">
  <path d="M12 2.2c3.2 0 3.584.012 4.85.07 1.17.056 1.97.25 2.428.418a4.919 4.919 0 0 1 1.77 1.145 4.919 4.919 0 0 1 1.145 1.77c.168.457.362 1.258.418 2.428.058 1.266.07 1.65.07 4.85s-.012 3.584-.07 4.85c-.056 1.17-.25 1.97-.418 2.428a4.919 4.919 0 0 1-1.145 1.77 4.919 4.919 0 0 1-1.77 1.145c-.457.168-1.258.362-2.428.418-1.266.058-1.65.07-4.85.07s-3.584-.012-4.85-.07c-1.17-.056-1.97-.25-2.428-.418a4.919 4.919 0 0 1-1.77-1.145 4.919 4.919 0 0 1-1.145-1.77c-.168-.457-.362-1.258-.418-2.428C2.212 15.784 2.2 15.4 2.2 12.2s.012-3.584.07-4.85c.056-1.17.25-1.97.418-2.428a4.919 4.919 0 0 1 1.145-1.77 4.919 4.919 0 0 1 1.77-1.145c.457-.168 1.258-.362 2.428-.418C8.416 2.212 8.8 2.2 12 2.2zm0 1.8c-3.155 0-3.522.012-4.763.068-1.028.048-1.586.22-1.955.368a3.12 3.12 0 0 0-1.14.743 3.12 3.12 0 0 0-.743 1.14c-.148.369-.32.927-.368 1.955C3.812 8.478 3.8 8.845 3.8 12s.012 3.522.068 4.763c.048 1.028.22 1.586.368 1.955.173.424.419.81.743 1.14.33.324.716.57 1.14.743.369.148.927.32 1.955.368 1.241.056 1.608.068 4.763.068s3.522-.012 4.763-.068c1.028-.048 1.586-.22 1.955-.368a3.12 3.12 0 0 0 1.14-.743 3.12 3.12 0 0 0 .743-1.14c.148-.369.32-.927.368-1.955.056-1.241.068-1.608.068-4.763s-.012-3.522-.068-4.763c-.048-1.028-.22-1.586-.368-1.955a3.12 3.12 0 0 0-.743-1.14 3.12 3.12 0 0 0-1.14-.743c-.369-.148-.927-.32-1.955-.368C15.522 4.012 15.155 4 12 4zm0 3.8a4.2 4.2 0 1 1 0 8.4 4.2 4.2 0 0 1 0-8.4zm0 1.8a2.4 2.4 0 1 0 0 4.8 2.4 2.4 0 0 0 0-4.8zm4.95-.9a1 1 0 1 1-2 0 1 1 0 0 1 2 0z"/>
</svg>
