<svg xmlns="http://www.w3.org/2000/svg" width="34" height="34" fill="#0077B5" viewBox="0 0 24 24">
  <path d="M20.452 20.452h-3.692v-5.569c0-1.328-.024-3.037-1.851-3.037-1.852 0-2.136 1.445-2.136 2.939v5.667h-3.692V9h3.546v1.561h.05c.494-.937 1.698-1.926 3.498-1.926 3.741 0 4.429 2.462 4.429 5.665v6.152zM5.337 7.433c-1.188 0-2.151-.963-2.151-2.151 0-1.188.963-2.151 2.151-2.151s2.151.963 2.151 2.151c0 1.188-.963 2.151-2.151 2.151zm1.846 13.019H3.491V9h3.692v11.452zM22.225 0H1.771C.792 0 0 .774 0 1.729v20.542C0 23.227.792 24 1.771 24h20.451C23.205 24 24 23.227 24 22.271V1.729C24 .774 23.205 0 22.225 0z"/>
</svg>
