<!-- whatsapp-icon.svg -->
<svg xmlns="http://www.w3.org/2000/svg" width="34" height="34" fill="green" viewBox="0 0 32 32">
  <path d="M16.002 2.999c-7.363 0-13.334 5.97-13.334 13.333 0 2.354.616 4.65 1.785 6.679L2 30l7.216-2.397a13.28 13.28 0 0 0 6.785 1.796c7.363 0 13.334-5.97 13.334-13.333S23.365 2.999 16.002 2.999zm0 24.667a11.34 11.34 0 0 1-5.782-1.573l-.413-.241-4.284 1.424 1.407-4.171-.269-.432a11.295 11.295 0 0 1-1.739-6.025c0-6.267 5.099-11.333 11.334-11.333s11.334 5.066 11.334 11.333-5.099 11.333-11.334 11.333zm6.293-8.363c-.344-.172-2.033-1-2.35-1.113-.317-.115-.548-.172-.779.172s-.893 1.113-1.094 1.34c-.2.229-.4.257-.744.086-.344-.172-1.452-.535-2.766-1.705-1.022-.913-1.713-2.037-1.912-2.381s-.021-.517.13-.688c.134-.143.298-.371.446-.557.151-.184.2-.316.3-.528.1-.212.05-.4-.025-.557s-.779-1.873-1.068-2.566c-.28-.673-.564-.581-.779-.591-.2-.009-.428-.011-.656-.011s-.6.086-.913.4c-.317.314-1.201 1.173-1.201 2.86s1.229 3.314 1.4 3.543c.172.229 2.417 3.692 5.862 5.178.82.354 1.459.566 1.957.724.822.262 1.57.226 2.159.137.659-.099 2.033-.83 2.322-1.633.287-.8.287-1.484.2-1.633-.086-.143-.317-.229-.66-.4z"/>
</svg>
